<svg id="Icon_ionic-ios-camera" data-name="Icon ionic-ios-camera" xmlns="http://www.w3.org/2000/svg" width="35.42" height="26.565" viewBox="0 0 35.42 26.565">
  <path id="Path_4" data-name="Path 4" d="M24.565,20.6a5.3,5.3,0,1,1-5.3-5.3A5.3,5.3,0,0,1,24.565,20.6Z" transform="translate(-1.551 -5.562)" fill="#748394"/>
  <path id="Path_5" data-name="Path 5" d="M37.107,12.3H32.079a1.5,1.5,0,0,1-1.107-.5c-2.62-2.933-3.607-3.929-4.677-3.929H18.41c-1.079,0-2.14,1-4.769,3.939a1.468,1.468,0,0,1-1.1.489h-.378v-.738a.74.74,0,0,0-.738-.738h-2.4a.74.74,0,0,0-.738.738V12.3H7.6a2.991,2.991,0,0,0-3.1,2.832V31.368A3.193,3.193,0,0,0,7.59,34.44H37.107a2.957,2.957,0,0,0,2.813-3.072V15.134A2.749,2.749,0,0,0,37.107,12.3ZM22.579,30.787a7.886,7.886,0,1,1,7.508-7.508A7.893,7.893,0,0,1,22.579,30.787Zm8.486-13.135a1.2,1.2,0,1,1,1.2-1.2A1.2,1.2,0,0,1,31.065,17.652Z" transform="translate(-4.5 -7.875)" fill="#748394"/>
</svg>
