<svg xmlns="http://www.w3.org/2000/svg" width="26.319" height="26.319" viewBox="0 0 26.319 26.319">
  <path id="Icon_material-shopping-cart" data-name="Icon material-shopping-cart" d="M9.4,24.055a2.632,2.632,0,1,0,2.632,2.632A2.628,2.628,0,0,0,9.4,24.055ZM1.5,3V5.632H4.132L8.869,15.62,7.093,18.844a2.544,2.544,0,0,0-.329,1.263A2.64,2.64,0,0,0,9.4,22.739H25.187V20.107H9.948a.326.326,0,0,1-.329-.329l.039-.158,1.184-2.145h9.8a2.619,2.619,0,0,0,2.3-1.355l4.711-8.54a1.286,1.286,0,0,0,.158-.632A1.32,1.32,0,0,0,26.5,5.632H7.04L5.8,3ZM22.555,24.055a2.632,2.632,0,1,0,2.632,2.632A2.628,2.628,0,0,0,22.555,24.055Z" transform="translate(-1.5 -3)" fill="#748394"/>
</svg>
